<svg width="71" height="70" viewBox="0 0 71 70" fill="none" xmlns="http://www.w3.org/2000/svg">
<path d="M16.5 41.5C14.2899 41.5 12.1702 40.622 10.6074 39.0592C9.04464 37.4964 8.16667 35.3768 8.16667 33.1667C8.16667 25.4312 12.1175 18.0125 19.1502 12.5427C26.1828 7.07291 35.721 4 45.6667 4C55.6123 4 65.1506 7.07291 72.1832 12.5427C79.2158 18.0125 83.1667 25.4312 83.1667 33.1667C83.1667 35.3768 82.2887 37.4964 80.7259 39.0592C79.1631 40.622 77.0435 41.5 74.8333 41.5L60.25 58.5833C56.9167 62.75 50.25 63.1667 46.0833 59.8333L24.8333 41.5" stroke="#E5E5EA" stroke-width="8" stroke-linecap="round" stroke-linejoin="round"/>
<path d="M44.4167 58.1667H12.3333C10.1232 58.1667 8.00358 57.2887 6.44078 55.7259C4.87797 54.1631 4 52.0435 4 49.8333C4 47.6232 4.87797 45.5036 6.44078 43.9408C8.00358 42.378 10.1232 41.5 12.3333 41.5H79C81.2101 41.5 83.3297 42.378 84.8926 43.9408C86.4554 45.5036 87.3333 47.6232 87.3333 49.8333C87.3333 52.0435 86.4554 54.1631 84.8926 55.7259C83.3297 57.2887 81.2101 58.1667 79 58.1667H61.0833M16.5 58.1667C14.2899 58.1667 12.1702 59.0446 10.6074 60.6074C9.04464 62.1702 8.16667 64.2899 8.16667 66.5C8.16667 73.5833 13.5833 79 20.6667 79H70.6667C77.75 79 83.1667 73.5833 83.1667 66.5C83.1667 64.2899 82.2887 62.1702 80.7259 60.6074C79.1631 59.0446 77.0435 58.1667 74.8333 58.1667" stroke="#E5E5EA" stroke-width="8" stroke-linecap="round" stroke-linejoin="round"/>
</svg>
