<svg width="80" height="33" viewBox="0 0 80 33" fill="none" xmlns="http://www.w3.org/2000/svg">
<path d="M17.7499 31.8562C19.0904 31.8562 20.3847 31.2997 21.3091 30.2796L22.5572 28.9349V32.5054H0L0.369789 31.8562L18.7668 0.695551H5.59306C4.25258 0.695551 2.95832 1.25199 2.03384 2.27213L0.785803 3.61686V0H23.0194L4.25258 31.8562H17.7499ZM43.4557 16.6468C45.3971 20.0318 45.3971 24.1588 43.4557 27.5438C42.8548 28.6566 42.0228 29.584 41.0059 30.2796C40.1738 30.9288 39.2494 31.4388 38.2324 31.7634C37.308 32.1344 36.3373 32.3662 35.3203 32.459C34.9968 32.5054 34.7194 32.5054 34.3959 32.5054H34.3496C34.0261 32.5054 33.7025 32.5054 33.4252 32.459C32.4083 32.3662 31.4376 32.1344 30.5131 31.7634C29.4962 31.4388 28.5717 30.9288 27.7397 30.2796C26.7227 29.584 25.8907 28.6566 25.2436 27.5438C23.3484 24.1588 23.3484 20.0318 25.2436 16.6468C25.8907 15.5803 26.7227 14.6065 27.7397 13.911C28.5717 13.2618 29.4962 12.7517 30.5131 12.4272C31.4376 12.0562 32.4083 11.8243 33.4252 11.7316C33.7025 11.6852 34.0261 11.6852 34.3496 11.6852C34.6732 11.6852 34.9968 11.6852 35.3203 11.7316C36.3373 11.8243 37.308 12.0562 38.2324 12.4272C39.2494 12.7517 40.1738 13.2618 41.0059 13.911C42.0228 14.6065 42.8548 15.5803 43.4557 16.6468ZM40.821 26.2918C41.7917 23.5559 41.7917 20.6346 40.821 17.8988C40.5436 16.9714 40.0814 16.1368 39.5729 15.3021C39.1107 14.5602 38.4636 13.911 37.7702 13.4009C36.7533 12.7054 35.5977 12.3344 34.3496 12.3344H34.3034C33.1016 12.3344 31.946 12.7054 30.9753 13.4009C30.2357 13.911 29.6348 14.5602 29.1726 15.3021C28.6179 16.1368 28.2019 16.9714 27.9246 17.8988C26.9539 20.6346 26.9539 23.5559 27.9246 26.2918C28.2019 27.2192 28.6179 28.1002 29.1726 28.8885C29.6348 29.6304 30.2357 30.326 30.9753 30.836C31.9922 31.4852 33.1478 31.8562 34.3496 31.8562H34.3959H34.4421C35.6439 31.8562 36.7995 31.4852 37.7702 30.7897C38.5098 30.2796 39.1107 29.6304 39.5729 28.8885C40.0814 28.0538 40.5436 27.2192 40.821 26.2918ZM60.6253 13.4473C60.6253 13.4937 60.6715 13.5864 60.6715 13.6328C60.6715 13.911 60.579 14.1892 60.3942 14.4211C60.1168 14.6993 59.8395 14.9775 59.5159 15.2094C59.331 15.3948 59.0537 15.4876 58.8225 15.5803H58.7763C58.6839 15.5803 58.5914 15.5803 58.499 15.5803C58.4527 15.5339 58.4065 15.5339 58.3603 15.4876C57.9443 14.9311 57.2972 14.6065 56.6038 14.6065C55.7256 14.6529 54.8473 14.9775 54.154 15.5339C53.3219 16.1831 52.721 17.0178 52.305 17.9916C52.305 18.177 52.305 18.4089 52.305 18.5944H52.3512V29.1203C52.3512 30.3723 52.8597 31.578 53.7842 32.4126L53.8766 32.5517H47.4053L47.544 32.4126C48.4684 31.578 48.9769 30.3723 48.9769 29.1203V18.5944C48.9769 17.7597 48.8845 16.8787 48.6996 15.9976C48.6071 15.4412 48.4222 14.8848 48.2373 14.3283C47.7289 13.0763 46.4808 12.288 45.1403 12.3344V11.6852C46.0186 11.6852 46.8968 11.778 47.7289 12.0562C48.4222 12.2417 49.1156 12.5663 49.7165 12.9836C50.4098 13.4937 51.0107 14.1428 51.4268 14.8848C51.7503 15.4876 51.9814 16.0904 52.1201 16.6932C52.4437 15.9976 52.8135 15.3485 53.2757 14.6993C53.9691 13.6791 54.986 12.8909 56.1416 12.4735C57.1585 12.1026 58.2679 12.1489 59.2848 12.5199C59.4697 12.5663 59.6546 12.659 59.7932 12.7054L60.2555 12.9836C60.4404 13.0763 60.579 13.2618 60.6253 13.4473ZM80 32.5054L75.0541 32.5517V30.0477C74.4532 30.5114 73.806 30.9288 73.1127 31.2997C72.4655 31.6243 71.7722 31.9025 71.0787 32.0417C70.6164 32.1808 70.1542 32.2735 69.692 32.3662C68.6288 32.5517 67.5657 32.5517 66.5488 32.4126C65.4394 32.2735 64.4225 31.9025 63.498 31.2997L63.1282 31.0679C62.9895 30.9751 62.8971 30.8824 62.7584 30.7433C62.5273 30.5578 62.2962 30.2796 62.1113 30.0477C61.9264 29.7232 61.7415 29.4449 61.6028 29.1203C61.4642 28.7958 61.3717 28.5175 61.2793 28.1929C61.0019 26.9873 61.0944 25.689 61.5566 24.5297C62.0188 23.4632 62.7122 22.5822 63.5904 21.8866C64.5149 21.2375 65.4856 20.7274 66.5025 20.3564C67.5657 19.9391 68.6751 19.6145 69.7844 19.3827C74.638 18.177 74.8229 16.6005 74.8229 16.5541H74.8692C74.8229 16.3222 74.7767 16.0904 74.7305 15.8585C74.5918 15.3021 74.3607 14.7457 74.0371 14.2356C73.7598 13.7255 73.3438 13.3082 72.8816 12.9836C72.1882 12.5199 71.4023 12.3344 70.5702 12.3344C69.5533 12.3344 68.5826 12.659 67.7506 13.2618C66.4563 14.282 65.6705 15.8122 65.6243 17.4815C65.5781 17.8061 65.1158 17.9452 64.5149 17.8988C64.0989 17.8988 63.7291 17.8524 63.3593 17.7133C62.7584 17.5279 62.3886 17.0178 62.6198 16.6468C63.0357 15.5803 63.6829 14.6529 64.4687 13.8646C65.2083 13.0763 66.179 12.4735 67.1959 12.1489C68.3053 11.8243 69.4146 11.6389 70.5702 11.6852C71.4947 11.6852 72.3731 11.778 73.2976 11.9635C74.0371 12.1026 74.7305 12.3808 75.3776 12.7054C76.2097 13.1691 76.8568 13.8183 77.3652 14.6065C78.0586 15.7658 78.4284 17.1569 78.4284 18.5016V29.1203C78.4284 30.3723 78.9369 31.578 79.8613 32.4126L80 32.5054ZM72.7891 30.6969C73.6211 30.2796 74.3607 29.7695 75.0541 29.1667V18.5016C75.0541 18.177 75.0541 17.8988 75.0078 17.6206C74.4069 18.3161 73.0202 19.2899 69.9231 20.0318C67.5657 20.6346 65.9016 21.8866 65.0696 23.2777C64.6998 23.8805 64.4225 24.6225 64.3762 25.318C64.33 26.0136 64.3763 26.7091 64.5611 27.3583C64.5611 27.5438 64.6536 27.7292 64.6998 27.9147C64.746 28.0075 64.746 28.1466 64.8385 28.2857C64.8847 28.4248 64.9772 28.5639 65.0696 28.6566L65.2083 28.8885L65.3469 29.074C65.8554 29.6304 66.4563 30.1405 67.1034 30.5114C67.8892 30.9288 68.7675 31.207 69.692 31.2997C70.7551 31.3925 71.8184 31.1606 72.7891 30.6969Z" fill="#F3DCA5"/>
</svg>
