<svg width="78" height="70" viewBox="0 0 78 70" fill="none" xmlns="http://www.w3.org/2000/svg">
<path d="M57.143 8.33333C60.6014 8.33333 63.893 9.25 66.6847 11.0833C71.4347 14.1667 74.3514 18.875 75.018 24.3333C75.2563 26.9773 74.9137 29.6413 74.014 32.1389C73.1143 34.6364 71.6793 36.9071 69.8097 38.7917C66.8931 41.6667 63.1847 43.5 59.1014 43.9167C51.143 44.75 44.143 47.9167 38.9347 53.2083C38.3046 53.8217 37.4599 54.165 36.5805 54.165C35.7012 54.165 34.8565 53.8217 34.2264 53.2083L30.1014 49.0833C29.8092 48.7948 29.5777 48.4509 29.4203 48.0716C29.2629 47.6924 29.1828 47.2856 29.1847 46.875C29.1847 45.8333 29.643 44.9167 30.518 44.0417C35.5597 38.9583 38.643 32.2083 39.393 24.4583C39.9347 18.9167 42.893 14.1667 47.7264 11.0417C50.4764 9.25 53.7264 8.33333 57.143 8.33333ZM57.143 0C52.268 0 47.393 1.33333 43.1847 4.04167C35.8514 8.75 31.8097 16.0833 31.1014 23.6667C30.5597 29.1667 28.4764 34.2917 24.643 38.125L24.518 38.25C19.6847 43.0833 19.6847 50.4583 24.2264 54.9583L28.3514 59.0833C30.643 61.375 33.6014 62.5 36.5597 62.5C39.518 62.5 42.518 61.375 44.8097 59.0833C48.8514 55.0417 54.1847 52.8333 59.9764 52.2083C65.6847 51.5833 71.2681 49.0833 75.6847 44.7083C78.4557 41.9412 80.5691 38.5865 81.8687 34.8924C83.1683 31.1983 83.6208 27.2593 83.1927 23.3667C82.7647 19.4741 81.467 15.7276 79.3957 12.4042C77.3244 9.08077 74.5325 6.26553 71.2264 4.16667C67.018 1.375 62.1014 0 57.143 0ZM17.768 74.4167C18.893 76.75 18.518 79.5833 16.5597 81.5C15.7116 82.3609 14.6306 82.9556 13.4493 83.2111C12.2681 83.4665 11.038 83.3717 9.90987 82.9381C8.78176 82.5046 7.80472 81.7512 7.0986 80.7704C6.39248 79.7896 5.98797 78.624 5.93471 77.4167C4.72733 77.3634 3.56176 76.9589 2.58096 76.2528C1.60016 75.5466 0.846775 74.5696 0.413229 73.4415C-0.0203174 72.3134 -0.115177 71.0833 0.140286 69.902C0.395749 68.7208 0.990426 67.6398 1.85137 66.7917C3.76804 64.875 6.64304 64.4583 8.9347 65.5833L19.268 55.4583C19.8514 56.25 20.518 57.1667 21.268 57.9167L25.393 62.0417C26.268 62.875 27.1014 63.5833 28.1847 64.2083L17.768 74.4167Z" fill="#E5E5EA"/>
</svg>
