<svg width="58" height="84" viewBox="0 0 58 84" fill="none" xmlns="http://www.w3.org/2000/svg">
<path d="M12.3333 17H45.6667M12.3333 17V8.66667C12.3333 7.5616 12.7723 6.50179 13.5537 5.72039C14.3351 4.93899 15.3949 4.5 16.5 4.5H41.5C42.6051 4.5 43.6649 4.93899 44.4463 5.72039C45.2277 6.50179 45.6667 7.5616 45.6667 8.66667V17M12.3333 17L7.775 24.3292C5.30799 28.2931 4.00028 32.8686 4 37.5375V71.1667C4 73.3768 4.87797 75.4964 6.44078 77.0592C8.00358 78.622 10.1232 79.5 12.3333 79.5H45.6667C47.8768 79.5 49.9964 78.622 51.5592 77.0592C53.122 75.4964 54 73.3768 54 71.1667V37.5375C53.9997 32.8686 52.692 28.2931 50.225 24.3292L45.6667 17" stroke="#E5E5EA" stroke-width="8" stroke-linecap="round" stroke-linejoin="round"/>
<path d="M20.6667 33.6666H37.3333M20.6667 58.6666C20.6667 60.8768 21.5446 62.9964 23.1075 64.5592C24.6703 66.122 26.7899 67 29 67C31.2101 67 33.3298 66.122 34.8926 64.5592C36.4554 62.9964 37.3333 60.8768 37.3333 58.6666C37.3333 56.4565 36.4554 54.3369 34.8926 52.7741C33.3298 51.2113 31.2101 50.3333 29 50.3333C26.7899 50.3333 24.6703 51.2113 23.1075 52.7741C21.5446 54.3369 20.6667 56.4565 20.6667 58.6666Z" stroke="#E5E5EA" stroke-width="8" stroke-linecap="round" stroke-linejoin="round"/>
</svg>
